<svg xmlns:xlink="http://www.w3.org/1999/xlink" xmlns="http://www.w3.org/2000/svg" class="icon icon_icon__IH_VP icon_iconUse__JMmEr ctabox_chevron__ftDrt" width="15"  height="26" ><defs><symbol id="icon-chevron-right" viewBox="0 0 9 14"><path d="M5.447 1.44C4.797.252 4.25.014 3.342.014 2.941.014 1.29 0 .888 0 .625 0 .5.157.5.342c0 .428.18.293.734 1.312L4.17 6.63a.908.908 0 0 1 0 .74l-2.936 4.976C.68 13.365.5 13.23.5 13.658c0 .185.125.342.388.342.401 0 2.053-.014 2.454-.014.909 0 1.456-.238 2.105-1.426l2.945-5.048a1.27 1.27 0 0 0 0-1.024L5.447 1.44Z" fill="#B99F65" fill-rule="evenodd"></path></symbol></defs><use xlink:href="#icon-chevron-right" class=""></use></svg>