<svg xmlns:xlink="http://www.w3.org/1999/xlink" viewBox="0 0 18 58" xmlns="http://www.w3.org/2000/svg" class="button_rune__qIhpo" width="18"  height="58" ><path class="medium-up" d="M11.881 53.962a.91.91 0 0 0-.258-.637.865.865 0 0 0-.622-.265H7a2.134 2.134 0 0 1-1.54-.656 2.245 2.245 0 0 1-.639-1.577v-10.37a.91.91 0 0 0-.259-.638.865.865 0 0 0-.622-.266H.88a.862.862 0 0 0-.62.266.908.908 0 0 0-.26.637v16.641c0 .238.092.465.259.636A.865.865 0 0 0 .88 58h10.121a.867.867 0 0 0 .621-.266.91.91 0 0 0 .26-.637v-3.135ZM6.12 50.827c0 .24.092.466.258.637A.864.864 0 0 0 7 51.73H11a.864.864 0 0 0 .621-.266.908.908 0 0 0 .26-.637v-4.102a.91.91 0 0 0-.26-.636.869.869 0 0 0-.62-.266H6.998a.866.866 0 0 0-.621.266.908.908 0 0 0-.26.636v4.102ZM18 57.097v-16.64a.91.91 0 0 0-.259-.638.865.865 0 0 0-.622-.266H7a.863.863 0 0 0-.621.266.91.91 0 0 0-.26.637v3.134c0 .24.093.466.26.637.167.17.387.266.62.267h4.003a2.132 2.132 0 0 1 1.539.654c.413.423.64.982.64 1.577v10.372a.91.91 0 0 0 .258.636.87.87 0 0 0 .623.267h3.058a.868.868 0 0 0 .622-.266.91.91 0 0 0 .259-.637Zm-4.82-26.046c0 .238.092.465.258.636.169.171.39.266.623.266h3.058a.87.87 0 0 0 .622-.265c.167-.172.259-.4.259-.637V20.679a.906.906 0 0 0-.259-.636.872.872 0 0 0-.622-.267H.881a.869.869 0 0 0-.622.267.904.904 0 0 0-.259.636v3.135c0 .239.092.466.26.637a.86.86 0 0 0 .62.266h10.121c.581 0 1.127.232 1.539.655.413.422.64.982.64 1.577v4.102Zm-1.299-4.102a.91.91 0 0 0-.258-.636.87.87 0 0 0-.622-.266H7a.867.867 0 0 0-.621.265.91.91 0 0 0-.26.637v4.102c0 .238.093.465.259.636a.87.87 0 0 0 .622.266H11a.868.868 0 0 0 .621-.265c.167-.172.26-.4.26-.637v-4.102ZM18 34.186a.91.91 0 0 0-.259-.637.865.865 0 0 0-.622-.266H7c-.581 0-1.128-.232-1.54-.655a2.245 2.245 0 0 1-.639-1.577v-4.102a.91.91 0 0 0-.258-.636.87.87 0 0 0-.623-.266H.88a.867.867 0 0 0-.62.265.91.91 0 0 0-.26.637v10.372a.91.91 0 0 0 .259.636.866.866 0 0 0 .621.267h16.24a.87.87 0 0 0 .62-.266c.168-.172.26-.4.26-.637v-3.135Zm0-27.013a.906.906 0 0 0-.259-.636.867.867 0 0 0-.622-.267h-3.058a.867.867 0 0 0-.622.267.906.906 0 0 0-.259.636v4.102c0 .594-.227 1.154-.64 1.576a2.134 2.134 0 0 1-1.539.656H7a.863.863 0 0 0-.621.266.909.909 0 0 0-.26.637v3.135a.91.91 0 0 0 .26.636.867.867 0 0 0 .62.267H17.12a.867.867 0 0 0 .622-.267.906.906 0 0 0 .259-.636V7.173ZM6.119 11.275a.91.91 0 0 0 .258.636c.168.171.389.266.622.266H11a.867.867 0 0 0 .621-.265.91.91 0 0 0 .26-.637V7.173a.907.907 0 0 0-.26-.636.867.867 0 0 0-.62-.267H6.998a.865.865 0 0 0-.621.267.906.906 0 0 0-.26.636v4.102ZM4.82 7.173c0-.595.227-1.155.64-1.576.412-.424.96-.657 1.539-.656h10.12a.873.873 0 0 0 .622-.266.908.908 0 0 0 .259-.637V.904a.908.908 0 0 0-.259-.637A.873.873 0 0 0 17.12 0H.881a.87.87 0 0 0-.622.267A.906.906 0 0 0 0 .904v16.64c0 .239.092.466.26.637.166.17.387.266.62.267h3.058a.871.871 0 0 0 .623-.267.906.906 0 0 0 .259-.637V7.173Z" fill-rule="evenodd" fill="#E1DEC8"></path><path class="small-only" d="M11.881 33.986a.902.902 0 0 0-.258-.634.868.868 0 0 0-.622-.263H7a2.14 2.14 0 0 1-1.54-.652 2.225 2.225 0 0 1-.639-1.568v-10.31a.902.902 0 0 0-.259-.634.868.868 0 0 0-.622-.264H.88a.864.864 0 0 0-.62.264.9.9 0 0 0-.26.634v16.543a.9.9 0 0 0 .259.633c.167.17.388.265.621.265h10.121a.869.869 0 0 0 .621-.264.902.902 0 0 0 .26-.634v-3.116ZM6.12 30.869c0 .238.092.463.258.633.168.17.388.265.622.265H11a.866.866 0 0 0 .621-.265.9.9 0 0 0 .26-.633V26.79a.901.901 0 0 0-.26-.632.871.871 0 0 0-.62-.265H6.998a.869.869 0 0 0-.621.265.9.9 0 0 0-.26.632v4.078ZM18 37.102V20.56a.902.902 0 0 0-.259-.634.868.868 0 0 0-.622-.264H7a.866.866 0 0 0-.621.264.902.902 0 0 0-.26.634v3.116c0 .237.093.462.26.633.167.17.387.264.62.265h4.003c.58-.001 1.127.23 1.539.65.413.42.64.977.64 1.568v10.311c0 .237.092.463.258.633.169.17.39.265.623.265h3.058a.87.87 0 0 0 .622-.264.902.902 0 0 0 .259-.634ZM13.18 11.21c0 .236.092.461.258.632.169.17.39.265.623.265h3.058a.872.872 0 0 0 .622-.264.904.904 0 0 0 .259-.633V.897A.898.898 0 0 0 17.12 0H.88A.896.896 0 0 0 0 .897v3.117c0 .238.092.463.26.633.166.17.387.264.62.264h10.121c.581 0 1.127.231 1.539.651.413.42.64.977.64 1.569v4.078ZM11.881 7.13a.903.903 0 0 0-.258-.633.873.873 0 0 0-.622-.265H7a.87.87 0 0 0-.621.264.902.902 0 0 0-.26.634v4.078c0 .236.093.461.259.632.168.17.389.265.622.265H11a.87.87 0 0 0 .621-.264.904.904 0 0 0 .26-.633V7.13ZM18 14.325a.902.902 0 0 0-.259-.633.868.868 0 0 0-.622-.264H7c-.581 0-1.128-.231-1.54-.651a2.225 2.225 0 0 1-.639-1.568V7.13a.901.901 0 0 0-.258-.633.872.872 0 0 0-.623-.265H.88a.87.87 0 0 0-.62.264.902.902 0 0 0-.26.634v10.311c0 .236.092.462.259.632.167.17.388.265.621.265h16.24a.872.872 0 0 0 .62-.264.904.904 0 0 0 .26-.633v-3.117Z" fill-rule="evenodd" fill="#E1DEC8"></path></svg>