<svg xmlns:xlink="http://www.w3.org/1999/xlink" xmlns="http://www.w3.org/2000/svg" aria-hidden="true" role="img" class="icon icon_icon__IH_VP rune-corners_corner__P3lKt rune-corners_cornerBR__Y_jBs" viewBox="0 0 49 49" width="49"  height="49" ><path d="M9.188.804c-.652 0-1.304.004-1.955-.001C6.523.797 5.811.75 5.103.778c-1.707.068-2.619.84-2.96 2.487-.183.88-.112 1.754.105 2.628.17.682.595.963 1.27.996 1.14.058 1.515-.292 1.611-1.552.118-1.528.18-1.706 1.196-1.725 1.893-.037 3.789.016 5.681.075.66.02 1.267.262 1.725.794.382.443.5.95.321 1.48-.181.538-.682.602-1.172.594-1.008-.017-2.01-.01-3.009.172-1.233.224-2.213.7-2.672 2.002-.419 1.191-1.36 1.72-2.637 1.67-.828-.031-1.658-.015-2.487-.023-.816-.009-1.38.274-1.443 1.184-.06.886.322 1.424 1.254 1.62.873.184 1.753.165 2.648.045 2.026-.272 2.453.125 2.436 2.12-.002.177-.029.354-.023.53.043 1.236.35 1.585 1.389 1.596 1.167.013 1.568-.356 1.6-1.584.039-1.415-.027-2.832.05-4.244.097-1.818.72-2.444 2.516-2.51 1.773-.063 3.55-.163 5.324.054 1.243.152 2.482.101 3.694-.267 1.047-.317 1.781-.987 2.057-2.02.523-1.962.51-3.966.252-5.97-.095-.74-.572-.97-1.255-.924-.926.062-1.363.515-1.447 1.661-.087 1.174.04 2.369-.285 3.517-.27.96-1.164 1.486-2.201 1.402-1.004-.08-1.211-.794-1.311-1.6-.029-.233-.025-.472-.066-.704-.403-2.279-1.655-3.398-3.99-3.486-1.36-.052-2.725-.01-4.086-.01v.018ZM.633 41.88c0-1.592-.079-3.19.018-4.776.164-2.697 1.143-3.789 3.757-4.427.747-.183 1.5-.346 2.238-.556a5.447 5.447 0 0 0 1.143-.47c.446-.246.69-.642.59-1.178-.106-.567-.532-.768-1.034-.781-.71-.02-1.422.026-2.133.037-.593.01-1.185.026-1.778.012C.566 29.67.211 29.323.137 26.424.072 23.887.017 21.349 0 18.812c-.01-1.695.678-2.243 2.313-1.943 1.15.21 1.45.545 1.436 1.821-.02 1.829-.12 3.657-.137 5.486-.008.804-.192 1.8.743 2.193a4.663 4.663 0 0 0 3.131.15c.562-.166.716-.774.83-1.284.3-1.33 1.188-1.817 2.456-1.832.178-.001.356-.018.533-.026 2.876-.138 2.879-.138 2.87-2.924-.003-.826-.046-1.653-.029-2.479.02-.928-.038-1.665-1.178-2.048-.967-.323-1.254-2.479-.591-3.271.3-.359.721-.396 1.137-.349 5.335.603 10.655.022 15.98-.163 1.82-.064 2.146-.342 2.271-2.165.084-1.236.064-2.481.182-3.713.175-1.819.675-2.307 2.474-2.707 2.289-.508 4.602-.285 6.909-.246.284.006.58.118.846.234.799.348.875 1.044.803 1.786-.078.794-.68.87-1.298.891-1.658.057-3.32.053-4.974.174-1.232.09-1.776.763-1.811 1.975-.033 1.139.332 1.55 1.541 1.632a6.807 6.807 0 0 1 1.566.274c2.378.73 3.09 1.54 3.3 3.998.092 1.055.092 2.124.038 3.183-.044.882-.528 1.259-1.385 1.262-.837.004-1.256-.367-1.333-1.29-.074-.882-.032-1.773-.121-2.653-.126-1.233-.533-1.74-1.47-1.945-.95-.207-1.753-.028-2.3.875-.713 1.18-1.789 1.791-3.137 2.109-1.569.369-1.857.915-1.711 2.58.082.94.154 1.88.241 2.82.075.802-.255 1.221-1.086 1.254-.95.037-1.314-.207-1.43-1.138-.146-1.17-.219-2.349-.352-3.52-.138-1.215-.68-1.705-1.831-1.712-1.096-.007-1.659.469-1.679 1.597-.021 1.236.121 2.476.11 3.714-.012 1.118-.435 1.54-1.436 1.636-1.092.105-1.69-.358-1.736-1.47-.057-1.356-.012-2.715-.038-4.072-.015-.752-.211-1.391-1.113-1.563-1.246-.237-1.886.237-1.916 1.581-.043 2.005.068 4.01-.254 6.006-.36 2.24-.852 2.759-3.15 3.108-.176.027-.354.037-.53.067-2.123.357-2.352.628-2.24 2.783.052 1.005.051 2.002-.093 3.001-.228 1.591-1.146 2.574-2.683 2.927-1.158.266-2.278.63-3.39 1.032-.755.272-1.155.78-1.132 1.601.026.957.414 1.386 1.405 1.409.709.016 1.42-.08 2.13-.08 1.593 0 2.447.653 2.745 2.19.239 1.23.147 2.476-.159 3.688-.206.816-.895 1.187-1.77 1.058-.883-.13-1.18-.686-1.104-1.51.015-.177.048-.353.052-.53.03-1.27-.244-1.643-1.24-1.699-1.123-.062-1.933.48-2.023 1.525-.091 1.054-.003 2.122-.017 3.184-.008.765.08 1.586-1.053 1.698-1.22.12-2.032-.343-2.278-1.447C.602 46.49.67 45.42.674 44.359c.004-.826.001-1.652.001-2.478H.633Z" stroke="none" fill-rule="evenodd" fill="#CBB687"></path></svg>